<!-- public/favicon.svg -->
<svg xmlns="http://www.w3.org/2000/svg" viewBox="0 0 64 64">
  <defs>
    <linearGradient id="g" x1="0" x2="1" y1="0" y2="1">
      <stop offset="0" stop-color="#6D5DF6"/>
      <stop offset="1" stop-color="#22C55E"/>
    </linearGradient>
  </defs>
  <rect width="64" height="64" rx="14" fill="url(#g)"/>
  <!-- S + P stylized as cards -->
  <g fill="#fff">
    <path d="M16 20h20a4 4 0 0 1 4 4v16a8 8 0 0 1-8 8H16a4 4 0 0 1-4-4V24a4 4 0 0 1 4-4zm6 10c0-1.1.9-2 2-2h6a2 2 0 1 1 0 4h-6a2 2 0 0 0 0 4h6a6 6 0 1 0 0-12h-6a6 6 0 0 0-6 6h4z"/>
    <rect x="36" y="12" width="12" height="12" rx="3" opacity=".85"/>
  </g>
</svg>